<svg fill="none" height="24" viewBox="0 0 24 24" width="24" xmlns="http://www.w3.org/2000/svg"><path clip-rule="evenodd" d="m12 2c5.5228 0 10 4.47715 10 10 0 5.5228-4.4772 10-10 10-5.52285 0-10-4.4772-10-10 0-5.52285 4.47715-10 10-10zm4 12c0 .5523-.4477 1-1 1s-1-.4477-1-1v-2.5858l-4.29289 4.2929c-.39053.3905-1.02369.3905-1.41422 0-.39052-.3905-.39052-1.0237 0-1.4142l4.29291-4.2929h-2.5858c-.55228 0-1-.44772-1-1s.44772-1 1-1h4.6717c.7337 0 1.3283.59489 1.3283 1.32837z" fill="#323232" fill-rule="evenodd"/></svg>